<svg width="24" height="24" viewBox="0 0 24 24" fill="none" xmlns="http://www.w3.org/2000/svg">
<path d="M22 7.81V16.19C22 19.83 19.83 22 16.19 22H7.81C4.17 22 2 19.83 2 16.19V7.81C2 7.3 2.04 6.81 2.13 6.36C2.64 3.61 4.67 2.01 7.77 2H16.23C19.33 2.01 21.36 3.61 21.87 6.36C21.96 6.81 22 7.3 22 7.81Z" fill="#4D4D4D"/>
<path d="M22 7.81V7.86H2V7.81C2 7.3 2.04 6.81 2.13 6.36H7.77V2H9.27V6.36H14.73V2H16.23V6.36H21.87C21.96 6.81 22 7.3 22 7.81Z" fill="#FECB00"/>
<path d="M14.44 12.7198L12.36 11.5198C11.59 11.0798 10.85 11.0198 10.27 11.3498C9.69 11.6798 9.37 12.3598 9.37 13.2398V15.6398C9.37 16.5198 9.69 17.1998 10.27 17.5298C10.52 17.6698 10.8 17.7398 11.09 17.7398C11.49 17.7398 11.92 17.6098 12.36 17.3598L14.44 16.1598C15.21 15.7198 15.63 15.0998 15.63 14.4298C15.63 13.7598 15.2 13.1698 14.44 12.7198Z" fill="#FECB00"/>
</svg>
