<svg width="24" height="24" viewBox="0 0 24 24" fill="none" xmlns="http://www.w3.org/2000/svg">
<path opacity="0.6" d="M12.9 2.52009L12.87 2.59009L9.97001 9.32009H7.12001C6.44001 9.32009 5.80001 9.45009 5.20001 9.71009L6.95001 5.53009L6.99001 5.44009L7.05001 5.28009C7.08001 5.21009 7.10001 5.15009 7.13001 5.10009C8.44001 2.07009 9.92001 1.38009 12.9 2.52009Z" fill="#FECB00"/>
<path d="M18.29 9.51953C17.84 9.38953 17.37 9.31953 16.88 9.31953H9.96997L12.87 2.58953L12.9 2.51953C13.04 2.56953 13.19 2.63953 13.34 2.68953L15.55 3.61953C16.78 4.12953 17.64 4.65953 18.17 5.29953C18.26 5.41953 18.34 5.52953 18.42 5.65953C18.51 5.79953 18.58 5.93953 18.62 6.08953C18.66 6.17953 18.69 6.25953 18.71 6.34953C18.97 7.19953 18.81 8.22953 18.29 9.51953Z" fill="#FECB00"/>
<path d="M21.76 14.2003V16.1503C21.76 16.3503 21.75 16.5503 21.74 16.7403C21.55 20.2403 19.6 22.0003 15.9 22.0003H8.09999C7.84999 22.0003 7.61999 21.9803 7.38999 21.9503C4.20999 21.7403 2.50999 20.0403 2.28999 16.8603C2.25999 16.6203 2.23999 16.3903 2.23999 16.1503V14.2003C2.23999 12.1903 3.45999 10.4603 5.19999 9.71031C5.79999 9.45031 6.43999 9.32031 7.11999 9.32031H16.88C17.37 9.32031 17.84 9.39031 18.29 9.52031C20.29 10.1303 21.76 11.9903 21.76 14.2003Z" fill="#4D4D4D"/>
<path opacity="0.8" d="M6.94999 5.53027L5.19999 9.71027C3.45999 10.4603 2.23999 12.1903 2.23999 14.2003V11.2703C2.23999 8.43027 4.25999 6.06027 6.94999 5.53027Z" fill="#4D4D4D"/>
<path opacity="0.8" d="M21.76 11.2698V14.1998C21.76 11.9898 20.29 10.1298 18.29 9.51984C18.81 8.22984 18.97 7.19984 18.71 6.34984C18.69 6.25984 18.66 6.17984 18.62 6.08984C20.49 7.05984 21.76 9.02984 21.76 11.2698Z" fill="#4D4D4D"/>
</svg>
