<svg width="24" height="24" viewBox="0 0 24 24" fill="none" xmlns="http://www.w3.org/2000/svg">
<path d="M10.49 2.22957L5.50003 4.09958C4.35003 4.52958 3.41003 5.88957 3.41003 7.11957V14.5496C3.41003 15.7296 4.19005 17.2796 5.14005 17.9896L9.44003 21.1996C10.85 22.2596 13.17 22.2596 14.58 21.1996L18.88 17.9896C19.83 17.2796 20.61 15.7296 20.61 14.5496V7.11957C20.61 5.88957 19.67 4.52958 18.52 4.09958L13.53 2.22957C12.68 1.91957 11.32 1.91957 10.49 2.22957Z" fill="#4D4D4D"/>
<path d="M11.9 11.3003C11.92 11.3003 11.94 11.3003 11.96 11.3003H11.98H12C13.15 11.2603 14.05 10.3303 14.06 9.17027C14.06 7.99027 13.1 7.03027 11.92 7.03027C10.74 7.03027 9.78003 7.99027 9.78003 9.17027C9.80003 10.3203 10.7 11.2603 11.9 11.3003Z" fill="#FECB00"/>
<path d="M14.19 13.4105C12.98 12.6105 11.02 12.6105 9.80002 13.4105C9.24002 13.7905 8.91003 14.3305 8.91003 14.8905C8.91003 15.4605 9.23002 15.9805 9.80002 16.3605C10.41 16.7605 11.2 16.9705 11.99 16.9705C12.78 16.9705 13.58 16.7705 14.18 16.3605C14.74 15.9805 15.07 15.4405 15.07 14.8805C15.08 14.3105 14.76 13.7905 14.19 13.4105Z" fill="#FECB00"/>
</svg>
